<svg xmlns="http://www.w3.org/2000/svg" viewBox="3 3.9 34 34" role="img" aria-label="Liquidity House Knowledge Explorer">
  <style>
    .drop { fill: #0c1626; }
    @media (prefers-color-scheme: dark) { .drop { fill: #f5f7fa; } }
  </style>
  <path class="drop" d="M20 4C20 4 8.5 17.2 8.5 26.2C8.5 32.6 13.65 37.8 20 37.8C26.35 37.8 31.5 32.6 31.5 26.2C31.5 17.2 20 4 20 4Z"/>
  <path fill="#3b82f6" d="M20 17a6 6 0 0 0-6 6c0 2.1 1.1 3.7 2.5 5 .7.6 1 1.2 1 2h5c0-.8.3-1.4 1-2 1.4-1.3 2.5-2.9 2.5-5a6 6 0 0 0-6-6Z"/>
  <path d="M18 32.5h4" fill="none" stroke="#3b82f6" stroke-width="2.5" stroke-linecap="round"/>
</svg>
